<svg width="18" height="18" viewBox="0 0 18 18" fill="none" xmlns="http://www.w3.org/2000/svg">
<path d="M9.44348 1.55001C11.7235 1.55001 11.9936 1.55001 12.8936 1.60001C13.8236 1.64001 14.7835 1.86001 15.4635 2.53001C16.1535 3.22001 16.3536 4.17001 16.3936 5.10001C16.4336 6.00001 16.4435 6.27001 16.4435 8.55001C16.4435 10.83 16.4436 11.1 16.3936 12C16.3536 12.93 16.1335 13.9 15.4635 14.57C14.7935 15.24 13.8336 15.46 12.8936 15.5C11.9936 15.54 11.7235 15.55 9.44348 15.55C7.16348 15.55 6.89353 15.55 5.99353 15.5C5.07353 15.46 4.09346 15.24 3.42346 14.57C2.74346 13.89 2.53353 12.93 2.49353 12C2.45353 11.1 2.44348 10.83 2.44348 8.55001C2.44348 6.27001 2.44353 6.00001 2.49353 5.10001C2.53353 4.18001 2.75346 3.20001 3.42346 2.53001C4.10346 1.85001 5.06353 1.64001 5.99353 1.60001C6.89353 1.56001 7.16348 1.55001 9.44348 1.55001ZM9.44348 0.0100098C7.12348 0.0100098 6.83346 0.0100128 5.92346 0.0600128C4.60346 0.120013 3.2935 0.49001 2.3335 1.44001C1.3735 2.40001 1.01349 3.71001 0.953491 5.03001C0.913491 5.94001 0.903564 6.23001 0.903564 8.55001C0.903564 10.87 0.903491 11.16 0.953491 12.07C1.01349 13.39 1.3835 14.71 2.3335 15.66C3.2935 16.62 4.60346 16.98 5.92346 17.04C6.83346 17.08 7.12348 17.09 9.44348 17.09C11.7635 17.09 12.0535 17.09 12.9635 17.04C14.2835 16.98 15.5935 16.61 16.5535 15.66C17.5135 14.71 17.8735 13.39 17.9335 12.07C17.9735 11.16 17.9835 10.87 17.9835 8.55001C17.9835 6.23001 17.9835 5.94001 17.9335 5.03001C17.8735 3.71001 17.5035 2.40001 16.5535 1.44001C15.5935 0.48001 14.2835 0.120013 12.9635 0.0600128C12.0535 0.0200128 11.7635 0.0100098 9.44348 0.0100098Z" fill="#603813"/>
<path d="M9.44348 4.16998C7.02348 4.16998 5.05347 6.13998 5.05347 8.55998C5.05347 10.98 7.02348 12.95 9.44348 12.95C11.8635 12.95 13.8335 10.98 13.8335 8.55998C13.8335 6.13998 11.8635 4.16998 9.44348 4.16998ZM9.44348 11.41C7.87348 11.41 6.59351 10.13 6.59351 8.55998C6.59351 6.98998 7.87348 5.70998 9.44348 5.70998C11.0135 5.70998 12.2935 6.98998 12.2935 8.55998C12.2935 10.13 11.0135 11.41 9.44348 11.41Z" fill="#603813"/>
<path d="M14.0035 5.03003C14.5724 5.03003 15.0334 4.56888 15.0334 4.00003C15.0334 3.43118 14.5724 2.97003 14.0035 2.97003C13.4347 2.97003 12.9735 3.43118 12.9735 4.00003C12.9735 4.56888 13.4347 5.03003 14.0035 5.03003Z" fill="#603813"/>
</svg>
