<svg width="17" height="18" viewBox="0 0 17 18" fill="none" xmlns="http://www.w3.org/2000/svg">
<path d="M12.4435 6.01C11.1535 5.96 9.93345 6.63 9.28345 7.75H9.24353V6.28H6.04346V17.03H9.38355V11.71C9.38355 10.31 9.65355 8.95 11.3835 8.95C13.1135 8.95 13.1235 10.55 13.1235 11.8V17.03H16.4635V11.13C16.4635 8.24 15.8435 6.01 12.4535 6.01H12.4435Z" fill="#603813"/>
<path d="M2.26355 0.929993C1.19355 0.929993 0.323486 1.79999 0.323486 2.86999C0.323486 3.93999 1.19355 4.80999 2.26355 4.80999C3.33355 4.80999 4.20349 3.93999 4.20349 2.86999C4.20349 1.79999 3.33355 0.929993 2.26355 0.929993Z" fill="#603813"/>
<path d="M3.93347 6.26996H0.593506V17.02H3.93347V6.26996Z" fill="#603813"/>
</svg>
