<svg width="187" height="54" viewBox="0 0 187 54" fill="none" xmlns="http://www.w3.org/2000/svg">
<path d="M23.955 8.51334C17.995 1.01334 9.78503 0.433337 1.06503 1.00334C1.00503 5.34334 0.745028 9.64334 0.965028 13.9133C1.09503 16.3433 1.64503 18.8833 2.61503 21.1133C6.64503 30.3333 17.445 35.1933 28.105 32.7833C28.165 28.2933 28.425 23.7733 28.225 19.2833C28.045 15.2833 26.465 11.6833 23.945 8.51334H23.955Z" fill="#EC5C35"/>
<path d="M19.385 37.2034C16.135 37.4734 13.705 39.3134 12.605 42.4434C11.405 45.8634 12.105 49.4234 11.905 53.0234C14.905 53.0634 17.665 53.2534 20.405 53.1034C23.995 52.9034 27.015 50.4834 27.625 46.9934C28.165 43.8934 28.075 40.6834 28.275 37.2734C25.085 37.2334 22.215 36.9734 19.385 37.2134V37.2034Z" fill="#EC5C35"/>
<path d="M59.895 1.00335C51.165 0.433348 42.955 1.00335 37.005 8.51335C34.485 11.6833 32.905 15.2833 32.725 19.2833C32.525 23.7733 32.785 28.2933 32.845 32.7833C43.505 35.1933 54.305 30.3334 58.335 21.1133C59.305 18.8834 59.865 16.3433 59.985 13.9133C60.205 9.64335 59.945 5.34335 59.885 1.00335H59.895Z" fill="#EC5C35"/>
<path d="M48.355 42.4433C47.255 39.3133 44.825 37.4833 41.575 37.2033C38.745 36.9633 35.875 37.2233 32.685 37.2633C32.885 40.6733 32.795 43.8834 33.335 46.9834C33.945 50.4734 36.965 52.8933 40.555 53.0933C43.295 53.2533 46.065 53.0533 49.055 53.0133C48.845 49.4233 49.555 45.8533 48.355 42.4333V42.4433Z" fill="#EC5C35"/>
<path d="M81.268 23.09V13.1285H77.3858V11.7573H86.7526V13.1285H82.8374V23.09H81.268ZM88.5111 23.09V11.7573H90.0805V16.6142H96.2425V11.7573H97.8284V23.09H96.2425V17.9853H90.0805V23.09H88.5111ZM100.675 23.09V11.7573H109.398V13.1119H102.245V16.6142H108.671V17.9688H102.245V21.7354H109.497V23.09H100.675ZM120.148 23.2883C118.992 23.2883 118.011 23.079 117.208 22.6605C116.404 22.231 115.787 21.5867 115.357 20.7277C114.939 19.8576 114.73 18.7563 114.73 17.4237C114.73 15.4523 115.209 13.982 116.167 13.0128C117.125 12.0437 118.458 11.5591 120.165 11.5591C121.134 11.5591 121.993 11.7188 122.742 12.0381C123.491 12.3465 124.074 12.8201 124.493 13.4589C124.922 14.0866 125.137 14.8796 125.137 15.8377H123.551C123.551 15.1769 123.408 14.6318 123.122 14.2023C122.846 13.7727 122.455 13.4534 121.949 13.2441C121.442 13.0238 120.847 12.9137 120.165 12.9137C119.372 12.9137 118.689 13.0679 118.116 13.3763C117.543 13.6846 117.108 14.1637 116.811 14.8135C116.514 15.4523 116.365 16.2783 116.365 17.2915V17.6384C116.365 18.6406 116.514 19.4611 116.811 20.0999C117.108 20.7277 117.538 21.1902 118.1 21.4876C118.672 21.7849 119.361 21.9336 120.165 21.9336C120.869 21.9336 121.475 21.829 121.982 21.6197C122.499 21.4105 122.896 21.0911 123.171 20.6616C123.458 20.2211 123.601 19.6704 123.601 19.0096H125.137C125.137 19.9898 124.917 20.7937 124.476 21.4215C124.047 22.0493 123.458 22.5173 122.709 22.8257C121.96 23.1341 121.106 23.2883 120.148 23.2883ZM127.327 23.09V11.7573H128.896V16.6142H135.058V11.7573H136.644V23.09H135.058V17.9853H128.896V23.09H127.327ZM138.186 23.09L142.663 11.7573H144.728L149.221 23.09H147.52L146.413 20.2816H140.895L139.805 23.09H138.186ZM141.407 18.9435H145.884L144.513 15.3917C144.48 15.2926 144.43 15.1549 144.364 14.9787C144.298 14.8025 144.227 14.6098 144.149 14.4005C144.072 14.1802 143.995 13.96 143.918 13.7397C143.841 13.5084 143.769 13.2992 143.703 13.1119H143.604C143.527 13.3322 143.439 13.5855 143.34 13.8719C143.241 14.1582 143.142 14.4391 143.043 14.7144C142.943 14.9787 142.861 15.2045 142.795 15.3917L141.407 18.9435ZM150.752 23.09V11.7573H152.271L157.773 19.2243C157.828 19.2904 157.899 19.3895 157.987 19.5217C158.075 19.6539 158.163 19.786 158.252 19.9182C158.34 20.0393 158.411 20.1495 158.466 20.2486H158.532C158.532 20.0724 158.532 19.9017 158.532 19.7365C158.532 19.5603 158.532 19.3895 158.532 19.2243V11.7573H160.069V23.09H158.632L153.064 15.4908C152.987 15.3697 152.872 15.199 152.717 14.9787C152.574 14.7584 152.453 14.5822 152.354 14.4501H152.271C152.271 14.6263 152.271 14.8025 152.271 14.9787C152.271 15.1439 152.271 15.3146 152.271 15.4908V23.09H150.752ZM168.02 23.2883C166.192 23.2883 164.799 22.8092 163.841 21.851C162.894 20.8929 162.42 19.4171 162.42 17.4237C162.42 16.1241 162.64 15.0393 163.081 14.1692C163.521 13.2992 164.171 12.6494 165.03 12.2199C165.889 11.7793 166.936 11.5591 168.169 11.5591C168.94 11.5591 169.639 11.6417 170.267 11.8069C170.895 11.9721 171.434 12.2254 171.886 12.5668C172.349 12.8972 172.701 13.3157 172.943 13.8223C173.197 14.3289 173.323 14.9291 173.323 15.623H171.721C171.721 15.1384 171.633 14.7254 171.456 14.384C171.28 14.0316 171.027 13.7452 170.697 13.5249C170.377 13.3047 170.003 13.1505 169.573 13.0624C169.144 12.9633 168.687 12.9137 168.202 12.9137C167.541 12.9137 166.952 12.9963 166.434 13.1615C165.917 13.3267 165.482 13.5855 165.129 13.9379C164.777 14.2904 164.507 14.7419 164.32 15.2926C164.133 15.8433 164.039 16.4985 164.039 17.2585V17.6054C164.039 18.6296 164.193 19.4611 164.502 20.0999C164.821 20.7387 165.278 21.2067 165.873 21.5041C166.467 21.7905 167.183 21.9336 168.02 21.9336C168.868 21.9336 169.568 21.818 170.118 21.5867C170.669 21.3444 171.077 20.981 171.341 20.4964C171.616 20.0118 171.754 19.4006 171.754 18.6627V18.4644H167.756V17.1263H173.34V23.09H172.15L171.985 21.6528C171.688 22.0383 171.335 22.3521 170.928 22.5944C170.52 22.8367 170.069 23.0129 169.573 23.1231C169.089 23.2332 168.571 23.2883 168.02 23.2883ZM176.064 23.09V11.7573H184.786V13.1119H177.633V16.6142H184.06V17.9688H177.633V21.7354H184.886V23.09H176.064Z" fill="#EC5C35"/>
<path d="M99.2575 42.91L103.734 31.5773H105.799L110.293 42.91H108.591L107.485 40.1016H101.967L100.877 42.91H99.2575ZM102.479 38.7635H106.956L105.585 35.2117C105.552 35.1126 105.502 34.9749 105.436 34.7987C105.37 34.6225 105.298 34.4298 105.221 34.2205C105.144 34.0002 105.067 33.78 104.99 33.5597C104.913 33.3284 104.841 33.1192 104.775 32.932H104.676C104.599 33.1522 104.511 33.4055 104.412 33.6919C104.313 33.9782 104.214 34.2591 104.114 34.5344C104.015 34.7987 103.933 35.0245 103.867 35.2117L102.479 38.7635ZM116.718 43.1083C114.89 43.1083 113.497 42.6292 112.539 41.671C111.592 40.7129 111.118 39.2371 111.118 37.2437C111.118 35.9441 111.338 34.8593 111.779 33.9892C112.219 33.1192 112.869 32.4694 113.728 32.0399C114.587 31.5993 115.633 31.3791 116.867 31.3791C117.638 31.3791 118.337 31.4617 118.965 31.6269C119.593 31.7921 120.132 32.0454 120.584 32.3868C121.047 32.7172 121.399 33.1357 121.641 33.6423C121.895 34.1489 122.021 34.7492 122.021 35.443H120.419C120.419 34.9584 120.331 34.5454 120.154 34.204C119.978 33.8516 119.725 33.5652 119.395 33.345C119.075 33.1247 118.701 32.9705 118.271 32.8824C117.842 32.7833 117.385 32.7337 116.9 32.7337C116.239 32.7337 115.65 32.8163 115.132 32.9815C114.615 33.1467 114.18 33.4055 113.827 33.758C113.475 34.1104 113.205 34.5619 113.018 35.1126C112.831 35.6633 112.737 36.3186 112.737 37.0785V37.4254C112.737 38.4496 112.891 39.2811 113.2 39.9199C113.519 40.5587 113.976 41.0268 114.571 41.3241C115.165 41.6105 115.881 41.7536 116.718 41.7536C117.566 41.7536 118.266 41.638 118.816 41.4067C119.367 41.1644 119.774 40.801 120.039 40.3164C120.314 39.8318 120.452 39.2206 120.452 38.4827V38.2844H116.454V36.9463H122.038V42.91H120.848L120.683 41.4728C120.386 41.8583 120.033 42.1721 119.626 42.4144C119.218 42.6567 118.767 42.8329 118.271 42.9431C117.787 43.0532 117.269 43.1083 116.718 43.1083ZM124.762 42.91V31.5773H133.484V32.932H126.331V36.4342H132.758V37.7888H126.331V41.5554H133.584V42.91H124.762ZM135.942 42.91V31.5773H137.462L142.963 39.0444C143.018 39.1104 143.09 39.2096 143.178 39.3417C143.266 39.4739 143.354 39.606 143.442 39.7382C143.53 39.8593 143.602 39.9695 143.657 40.0686H143.723C143.723 39.8924 143.723 39.7217 143.723 39.5565C143.723 39.3803 143.723 39.2096 143.723 39.0444V31.5773H145.259V42.91H143.822L138.255 35.3108C138.178 35.1897 138.062 35.019 137.908 34.7987C137.765 34.5784 137.643 34.4022 137.544 34.2701H137.462C137.462 34.4463 137.462 34.6225 137.462 34.7987C137.462 34.9639 137.462 35.1346 137.462 35.3108V42.91H135.942ZM152.946 43.1083C151.79 43.1083 150.81 42.899 150.006 42.4805C149.202 42.051 148.585 41.4067 148.156 40.5477C147.737 39.6776 147.528 38.5763 147.528 37.2437C147.528 35.2723 148.007 33.802 148.965 32.8328C149.923 31.8637 151.256 31.3791 152.963 31.3791C153.932 31.3791 154.791 31.5388 155.54 31.8582C156.289 32.1665 156.873 32.6401 157.291 33.2789C157.721 33.9066 157.935 34.6996 157.935 35.6578H156.35C156.35 34.997 156.206 34.4518 155.92 34.0223C155.645 33.5928 155.254 33.2734 154.747 33.0641C154.24 32.8438 153.646 32.7337 152.963 32.7337C152.17 32.7337 151.487 32.8879 150.914 33.1963C150.342 33.5046 149.907 33.9837 149.609 34.6335C149.312 35.2723 149.163 36.0983 149.163 37.1115V37.4584C149.163 38.4606 149.312 39.2811 149.609 39.9199C149.907 40.5477 150.336 41.0102 150.898 41.3076C151.471 41.605 152.159 41.7536 152.963 41.7536C153.668 41.7536 154.273 41.649 154.78 41.4398C155.298 41.2305 155.694 40.9111 155.97 40.4816C156.256 40.0411 156.399 39.4904 156.399 38.8296H157.935C157.935 39.8098 157.715 40.6138 157.275 41.2415C156.845 41.8693 156.256 42.3373 155.507 42.6457C154.758 42.9541 153.905 43.1083 152.946 43.1083ZM163.249 42.91V38.2018L158.789 31.5773H160.589L164.042 36.8142H164.125L167.561 31.5773H169.279L164.835 38.2018V42.91H163.249Z" fill="#EC5C35"/>
</svg>
