<svg width="21" height="17" viewBox="0 0 21 17" fill="none" xmlns="http://www.w3.org/2000/svg">
<path d="M19.6436 3.52998C19.3636 2.35998 18.5235 1.43998 17.4535 1.11998C15.9835 0.689984 10.7935 0.669983 10.2035 0.669983C9.61349 0.669983 4.42349 0.679984 2.95349 1.11998C1.89349 1.42998 1.05355 2.35998 0.76355 3.52998C0.36355 5.16998 0.353516 8.39999 0.353516 8.53999C0.353516 8.67999 0.35354 11.9 0.75354 13.55C1.03354 14.72 1.87348 15.64 2.94348 15.96C4.41348 16.39 9.60348 16.41 10.1935 16.41C10.7835 16.41 15.9735 16.4 17.4435 15.96C18.5035 15.65 19.3435 14.72 19.6335 13.55C20.0335 11.91 20.0334 8.67999 20.0334 8.53999C20.0334 8.39999 20.0335 5.17998 19.6335 3.52998H19.6436ZM18.0135 13.07C17.8836 13.61 17.5035 14.03 17.0135 14.17C16.0635 14.45 12.4135 14.55 10.2035 14.55C7.99349 14.55 4.34355 14.45 3.39355 14.17C2.91355 14.03 2.52355 13.61 2.39355 13.07C2.10355 11.9 2.04346 9.39999 2.04346 8.53999C2.04346 7.67999 2.10355 5.17999 2.39355 4.00999C2.52355 3.47999 2.90354 3.04998 3.38354 2.90998C4.33354 2.62998 7.98348 2.52998 10.1935 2.52998C12.4035 2.52998 16.0535 2.62998 17.0035 2.90998C17.4835 3.04998 17.8735 3.46999 18.0035 4.00999C18.2935 5.17999 18.3535 7.67999 18.3535 8.53999C18.3535 9.39999 18.2935 11.9 18.0035 13.07H18.0135Z" fill="#603813"/>
<path d="M8.19348 11.46L13.3435 8.52998L8.19348 5.59998V11.46Z" fill="#603813"/>
</svg>
