<svg width="186" height="54" viewBox="0 0 186 54" fill="none" xmlns="http://www.w3.org/2000/svg">
<path d="M23.53 8.51332C17.57 1.01332 9.36001 0.433322 0.640008 1.00332C0.580008 5.34332 0.32001 9.64332 0.54001 13.9133C0.67001 16.3433 1.22001 18.8833 2.19001 21.1133C6.22001 30.3333 17.02 35.1933 27.68 32.7833C27.74 28.2933 28 23.7733 27.8 19.2833C27.62 15.2833 26.04 11.6833 23.52 8.51332H23.53Z" fill="#1F2328"/>
<path d="M18.9601 37.2033C15.7101 37.4733 13.2801 39.3133 12.1801 42.4433C10.9801 45.8633 11.6801 49.4233 11.4801 53.0233C14.4801 53.0633 17.2401 53.2533 19.9801 53.1033C23.5701 52.9033 26.5901 50.4833 27.2001 46.9933C27.7401 43.8933 27.6501 40.6833 27.8501 37.2733C24.6601 37.2333 21.7901 36.9733 18.9601 37.2133V37.2033Z" fill="#1F2328"/>
<path d="M59.47 1.00332C50.74 0.433318 42.53 1.00332 36.58 8.51332C34.06 11.6833 32.48 15.2833 32.3 19.2833C32.1 23.7733 32.36 28.2933 32.42 32.7833C43.08 35.1933 53.88 30.3333 57.91 21.1133C58.88 18.8833 59.44 16.3433 59.56 13.9133C59.78 9.64332 59.52 5.34332 59.46 1.00332H59.47Z" fill="#1F2328"/>
<path d="M47.9298 42.4433C46.8298 39.3133 44.3998 37.4833 41.1498 37.2033C38.3198 36.9633 35.4498 37.2233 32.2598 37.2633C32.4598 40.6733 32.3698 43.8833 32.9098 46.9833C33.5198 50.4733 36.5398 52.8933 40.1298 53.0933C42.8698 53.2533 45.6398 53.0533 48.6298 53.0133C48.4198 49.4233 49.1298 45.8533 47.9298 42.4333V42.4433Z" fill="#1F2328"/>
<path d="M80.8431 23.09V13.1284H76.9609V11.7573H86.3277V13.1284H82.4125V23.09H80.8431ZM88.0862 23.09V11.7573H89.6556V16.6142H95.8175V11.7573H97.4035V23.09H95.8175V17.9853H89.6556V23.09H88.0862ZM100.25 23.09V11.7573H108.973V13.1119H101.82V16.6142H108.246V17.9688H101.82V21.7354H109.072V23.09H100.25ZM119.723 23.2882C118.567 23.2882 117.587 23.079 116.783 22.6605C115.979 22.231 115.362 21.5867 114.932 20.7276C114.514 19.8576 114.305 18.7562 114.305 17.4236C114.305 15.4522 114.784 13.982 115.742 13.0128C116.7 12.0436 118.033 11.559 119.74 11.559C120.709 11.559 121.568 11.7187 122.317 12.0381C123.066 12.3465 123.649 12.8201 124.068 13.4588C124.497 14.0866 124.712 14.8796 124.712 15.8377H123.126C123.126 15.1769 122.983 14.6318 122.697 14.2022C122.421 13.7727 122.03 13.4533 121.524 13.2441C121.017 13.0238 120.422 12.9137 119.74 12.9137C118.947 12.9137 118.264 13.0679 117.691 13.3762C117.118 13.6846 116.683 14.1637 116.386 14.8135C116.089 15.4522 115.94 16.2782 115.94 17.2915V17.6384C115.94 18.6406 116.089 19.4611 116.386 20.0999C116.683 20.7276 117.113 21.1902 117.675 21.4876C118.247 21.7849 118.936 21.9336 119.74 21.9336C120.445 21.9336 121.05 21.829 121.557 21.6197C122.074 21.4105 122.471 21.0911 122.746 20.6616C123.033 20.221 123.176 19.6704 123.176 19.0096H124.712C124.712 19.9897 124.492 20.7937 124.051 21.4215C123.622 22.0492 123.033 22.5173 122.284 22.8257C121.535 23.134 120.681 23.2882 119.723 23.2882ZM126.902 23.09V11.7573H128.471V16.6142H134.633V11.7573H136.219V23.09H134.633V17.9853H128.471V23.09H126.902ZM137.761 23.09L142.238 11.7573H144.303L148.796 23.09H147.095L145.988 20.2816H140.47L139.38 23.09H137.761ZM140.982 18.9435H145.459L144.088 15.3917C144.055 15.2926 144.005 15.1549 143.939 14.9787C143.873 14.8025 143.802 14.6097 143.724 14.4005C143.647 14.1802 143.57 13.9599 143.493 13.7397C143.416 13.5084 143.345 13.2991 143.278 13.1119H143.179C143.102 13.3322 143.014 13.5855 142.915 13.8718C142.816 14.1582 142.717 14.439 142.618 14.7144C142.519 14.9787 142.436 15.2044 142.37 15.3917L140.982 18.9435ZM150.327 23.09V11.7573H151.846L157.348 19.2243C157.403 19.2904 157.474 19.3895 157.562 19.5217C157.65 19.6538 157.739 19.786 157.827 19.9182C157.915 20.0393 157.986 20.1494 158.041 20.2486H158.107C158.107 20.0723 158.107 19.9016 158.107 19.7364C158.107 19.5602 158.107 19.3895 158.107 19.2243V11.7573H159.644V23.09H158.207L152.639 15.4908C152.562 15.3696 152.447 15.1989 152.292 14.9787C152.149 14.7584 152.028 14.5822 151.929 14.45H151.846C151.846 14.6262 151.846 14.8025 151.846 14.9787C151.846 15.1439 151.846 15.3146 151.846 15.4908V23.09H150.327ZM167.595 23.2882C165.767 23.2882 164.374 22.8092 163.416 21.851C162.469 20.8928 161.995 19.417 161.995 17.4236C161.995 16.1241 162.215 15.0392 162.656 14.1692C163.096 13.2991 163.746 12.6494 164.605 12.2198C165.464 11.7793 166.511 11.559 167.744 11.559C168.515 11.559 169.214 11.6416 169.842 11.8068C170.47 11.972 171.01 12.2253 171.461 12.5668C171.924 12.8972 172.276 13.3157 172.518 13.8223C172.772 14.3289 172.898 14.9291 172.898 15.623H171.296C171.296 15.1384 171.208 14.7254 171.032 14.384C170.855 14.0315 170.602 13.7452 170.272 13.5249C169.952 13.3046 169.578 13.1505 169.148 13.0624C168.719 12.9632 168.262 12.9137 167.777 12.9137C167.116 12.9137 166.527 12.9963 166.009 13.1615C165.492 13.3267 165.057 13.5855 164.704 13.9379C164.352 14.2903 164.082 14.7419 163.895 15.2926C163.708 15.8432 163.614 16.4985 163.614 17.2584V17.6054C163.614 18.6296 163.768 19.4611 164.077 20.0999C164.396 20.7386 164.853 21.2067 165.448 21.5041C166.043 21.7904 166.758 21.9336 167.595 21.9336C168.443 21.9336 169.143 21.818 169.693 21.5867C170.244 21.3444 170.652 20.9809 170.916 20.4964C171.191 20.0118 171.329 19.4005 171.329 18.6626V18.4644H167.331V17.1263H172.915V23.09H171.725L171.56 21.6528C171.263 22.0382 170.91 22.3521 170.503 22.5944C170.095 22.8367 169.644 23.0129 169.148 23.123C168.664 23.2332 168.146 23.2882 167.595 23.2882ZM175.639 23.09V11.7573H184.362V13.1119H177.208V16.6142H183.635V17.9688H177.208V21.7354H184.461V23.09H175.639Z" fill="#1F2328"/>
<path d="M98.8324 42.91L103.309 31.5773H105.374L109.868 42.91H108.166L107.059 40.1016H101.542L100.451 42.91H98.8324ZM102.054 38.7635H106.531L105.16 35.2117C105.127 35.1126 105.077 34.9749 105.011 34.7987C104.945 34.6225 104.873 34.4297 104.796 34.2205C104.719 34.0002 104.642 33.7799 104.565 33.5597C104.488 33.3284 104.416 33.1191 104.35 32.9319H104.251C104.174 33.1522 104.086 33.4055 103.987 33.6918C103.888 33.9782 103.788 34.259 103.689 34.5344C103.59 34.7987 103.508 35.0244 103.442 35.2117L102.054 38.7635ZM116.293 43.1082C114.465 43.1082 113.072 42.6292 112.114 41.671C111.166 40.7128 110.693 39.237 110.693 37.2436C110.693 35.9441 110.913 34.8592 111.354 33.9892C111.794 33.1191 112.444 32.4694 113.303 32.0398C114.162 31.5993 115.208 31.379 116.442 31.379C117.213 31.379 117.912 31.4616 118.54 31.6268C119.168 31.792 119.707 32.0453 120.159 32.3868C120.621 32.7172 120.974 33.1357 121.216 33.6423C121.469 34.1489 121.596 34.7491 121.596 35.443H119.994C119.994 34.9584 119.906 34.5454 119.729 34.204C119.553 33.8515 119.3 33.5652 118.969 33.3449C118.65 33.1246 118.276 32.9705 117.846 32.8824C117.417 32.7832 116.959 32.7337 116.475 32.7337C115.814 32.7337 115.225 32.8163 114.707 32.9815C114.19 33.1467 113.755 33.4055 113.402 33.7579C113.05 34.1103 112.78 34.5619 112.593 35.1126C112.405 35.6632 112.312 36.3185 112.312 37.0784V37.4254C112.312 38.4496 112.466 39.2811 112.774 39.9199C113.094 40.5586 113.551 41.0267 114.146 41.3241C114.74 41.6104 115.456 41.7536 116.293 41.7536C117.141 41.7536 117.841 41.638 118.391 41.4067C118.942 41.1644 119.349 40.8009 119.614 40.3164C119.889 39.8318 120.027 39.2205 120.027 38.4826V38.2844H116.029V36.9463H121.613V42.91H120.423L120.258 41.4728C119.961 41.8582 119.608 42.1721 119.201 42.4144C118.793 42.6567 118.342 42.8329 117.846 42.943C117.361 43.0532 116.844 43.1082 116.293 43.1082ZM124.337 42.91V31.5773H133.059V32.9319H125.906V36.4342H132.332V37.7888H125.906V41.5554H133.158V42.91H124.337ZM135.517 42.91V31.5773H137.037L142.538 39.0443C142.593 39.1104 142.664 39.2095 142.753 39.3417C142.841 39.4738 142.929 39.606 143.017 39.7382C143.105 39.8593 143.177 39.9694 143.232 40.0686H143.298C143.298 39.8923 143.298 39.7216 143.298 39.5564C143.298 39.3802 143.298 39.2095 143.298 39.0443V31.5773H144.834V42.91H143.397L137.83 35.3108C137.752 35.1896 137.637 35.0189 137.483 34.7987C137.339 34.5784 137.218 34.4022 137.119 34.27H137.037C137.037 34.4462 137.037 34.6225 137.037 34.7987C137.037 34.9639 137.037 35.1346 137.037 35.3108V42.91H135.517ZM152.521 43.1082C151.365 43.1082 150.385 42.899 149.581 42.4805C148.777 42.051 148.16 41.4067 147.73 40.5476C147.312 39.6776 147.103 38.5762 147.103 37.2436C147.103 35.2722 147.582 33.802 148.54 32.8328C149.498 31.8636 150.831 31.379 152.538 31.379C153.507 31.379 154.366 31.5387 155.115 31.8581C155.864 32.1665 156.448 32.6401 156.866 33.2788C157.296 33.9066 157.51 34.6996 157.51 35.6577H155.924C155.924 34.9969 155.781 34.4518 155.495 34.0222C155.22 33.5927 154.829 33.2733 154.322 33.0641C153.815 32.8438 153.221 32.7337 152.538 32.7337C151.745 32.7337 151.062 32.8879 150.489 33.1962C149.917 33.5046 149.482 33.9837 149.184 34.6335C148.887 35.2722 148.738 36.0982 148.738 37.1115V37.4584C148.738 38.4606 148.887 39.2811 149.184 39.9199C149.482 40.5476 149.911 41.0102 150.473 41.3076C151.045 41.6049 151.734 41.7536 152.538 41.7536C153.243 41.7536 153.848 41.649 154.355 41.4397C154.873 41.2305 155.269 40.9111 155.544 40.4816C155.831 40.041 155.974 39.4904 155.974 38.8296H157.51C157.51 39.8097 157.29 40.6137 156.85 41.2415C156.42 41.8692 155.831 42.3373 155.082 42.6457C154.333 42.954 153.479 43.1082 152.521 43.1082ZM162.824 42.91V38.2018L158.364 31.5773H160.164L163.617 36.8141H163.7L167.136 31.5773H168.854L164.41 38.2018V42.91H162.824Z" fill="#1F2328"/>
</svg>
